<svg xmlns="http://www.w3.org/2000/svg" width="13" height="13.84" viewBox="0 0 518 552"><path fill="#9EBDD7" d="M258.986.218h.042c3.014 0 5.913.455 8.656 1.265l.057.028 1.151.356.242.085.028.014.198.072.242.085.242.085.014.014.213.071.242.1.227.085.014.014.214.085.228.099.227.1h.014l.228.099.227.099.228.113.213.1.228.113.228.113h.014l.213.113.214.115.227.113h.014l.2.113.213.115.228.128h.028l.184.113a30.42 30.42 0 0 1 6.553 4.975l228.379 228.378c11.925 11.912 11.925 31.399 0 43.31l-.015.03c-11.925 11.925-31.398 11.911-43.324 0l-176.07-176.071v416.318c0 16.858-13.759 30.617-30.617 30.617h-.042c-16.858 0-30.631-13.759-30.631-30.617V104.847L52.284 280.919c-11.926 11.911-31.399 11.925-43.324 0l-.015-.03c-11.925-11.911-11.925-31.398 0-43.31L237.324 9.201a29.114 29.114 0 0 1 3.952-3.327l.212-.156.398-.256.27-.17.341-.242.256-.17.369-.214.283-.184.356-.2.299-.17.356-.185.313-.17h.028l.313-.184.326-.157.341-.17.341-.157h.028l.299-.156.355-.156h.028l.299-.143.355-.142.34-.143.356-.128h.028l.129-.057.156-.057.157-.057.17-.057.099-.029.057-.028A30.21 30.21 0 0 1 258.986.218z"/></svg>
