<svg id="icon-edit" xmlns="http://www.w3.org/2000/svg" width="19.843" height="19.843" viewBox="0 0 19.843 19.843"><path fill-rule="evenodd" clip-rule="evenodd" fill="#90B4D2" d="M17.465 9.922a.583.583 0 0 1 1.164 0v6.796c0 .526-.215 1.004-.561 1.35s-.824.561-1.35.561H3.125a1.907 1.907 0 0 1-1.35-.561l-.035-.038a1.906 1.906 0 0 1-.526-1.312V3.125c0-.524.215-1.002.561-1.348l.002-.002a1.905 1.905 0 0 1 1.348-.561h6.796a.583.583 0 0 1 0 1.164H3.125a.754.754 0 0 0-.528.217l-.002.002a.75.75 0 0 0-.217.528v13.593c0 .195.075.373.197.507l.022.021c.135.135.323.22.528.22h13.593c.205 0 .392-.084.528-.22s.22-.322.22-.528V9.922h-.001zM12.962 3.33l-2.311 2.31-.011.012-.36.36-.028.031-.319.315-3.744 3.745a.598.598 0 0 0-.081.101l-.002.002a.572.572 0 0 0-.073.178l-.493 1.844-.5 1.862a.58.58 0 0 0 .711.712l1.863-.499 1.823-.489a.576.576 0 0 0 .302-.16l3.745-3.745.029-.031.36-.361.329-.327 1.525-1.525.787-.787.013-.012.012-.013.754-.753a2.508 2.508 0 0 0 .733-1.775c0-.641-.245-1.284-.733-1.773l-.001-.004-.035-.032a2.502 2.502 0 0 0-1.739-.7c-.643 0-1.287.245-1.776.734l-.753.753-.014.013-.013.014zm1.247.398l1.906 1.906.355-.355c.262-.262.392-.607.392-.953s-.13-.692-.39-.953l-.026-.026a1.347 1.347 0 0 0-.928-.366c-.346 0-.691.131-.952.392l-.357.355zm1.083 2.728L13.387 4.55l-1.913 1.912-.012.012-.36.36-.031.029-.316.317-3.332 3.334 1.906 1.906 3.333-3.333.031-.028.359-.36.002-.002.327-.326 1.524-1.526.387-.389zm-8.63 6.072l-.239.892.892-.239.891-.238L6.9 11.637l-.238.891z"/></svg>
