<svg xmlns="http://www.w3.org/2000/svg" width="14.39" height="14.39" viewBox="0 0 480 684" shape-rendering="geometricPrecision" fill-rule="evenodd" clip-rule="evenodd"><path d="M190.8 675.5c-21.4 0-38.7-17.3-38.7-38.7 0-21.4 17.3-38.7 38.7-38.7h98.4c21.4 0 38.7 17.3 38.7 38.7 0 21.4-17.3 38.7-38.7 38.7h-98.4zm97.8-199.7c6.9-57.3 31.7-90.3 56.7-123.6 22.2-29.4 44.5-59.1 44.5-116.4 0-41.4-16.8-78.9-43.9-106-27-27.1-64.5-43.9-105.9-43.9-41.4 0-78.8 16.8-105.9 43.9-27.1 27.1-43.9 64.6-43.9 106 0 57.3 22.3 87 44.5 116.4 25 33.3 49.8 66.3 56.7 123.6h97.2zm118.5-77.3c-21.9 29-43.5 57.8-43.2 112.2l.2 3.8c0 21.4-17.4 38.7-38.8 38.7H154.7v-.1h-.8c-21.3-.4-38.2-18-37.8-39.4 1.1-56.3-20.9-85.6-43.1-115.2-30-39.8-60.3-80.1-60.3-162.7C12.7 173 38.2 116.2 79.3 75 120.4 33.9 177.2 8.5 240 8.5c62.8 0 119.6 25.4 160.7 66.5 41.2 41.2 66.6 98 66.6 160.8 0 82.6-30.3 122.9-60.2 162.7z" fill="#dfe5f0" fill-rule="nonzero"/></svg>
