<svg xmlns="http://www.w3.org/2000/svg" width="13" height="13" viewBox="0 0 31.181 31.181"><path class="homepage-icon-path" fill-rule="evenodd" clip-rule="evenodd" fill="#C3E0EB" d="M12.478 21.347a1.87 1.87 0 0 1-2.644-2.644l14.09-14.09H19.18a1.87 1.87 0 0 1 0-3.739h9.257c.443 0 .85.154 1.17.412l.007.005.026.021.006.005.025.021.006.006.03.027.006.006.006.005.018.017.006.006.006.006.023.023.006.006.006.006.023.023.006.006.022.024.006.006.005.006.015.018.013.015.019.024.005.006.005.007.015.019.011.015.013.018.004.007.007.009.001.001.001.001v.001h.001v.002l.001.001v.002l.001.001.001.001v.001l.007.01v.001l.001.001.001.001.001.001h.001v.001l.002.003.001.002.006.008.001.001v.001l.001.001v.001l.001.001v.002h.001l.01.015v.002l.001.001v.003l.001.001v.001l.001.002.004-.004.006.009v.002l.001.001h.001v.002l.001.001v.001l.006.009v.001h.001v.001l.001.001h.001v.003l.004.007.001.002.005.008v.001l.001.002v.001h.001v.001l.001.001v.002l.006.01.003-.002v.004l.001.001v.001l.005.009v.001l.007.01.008.015a.93.93 0 0 0 .016.028l.007.012.015.028.005.01.015.031.004.009.016.034.003.006.016.036.002.005.016.038.001.003.016.041c.073.2.114.417.114.643v9.257a1.87 1.87 0 0 1-3.74 0V7.257l-14.089 14.09zM1.39 29.727l.031.032a.95.95 0 0 0 .032.031h.001l.032.03.001.001.033.03.034.029.035.028.036.027a1.862 1.862 0 0 0 1.119.371h25.694a1.87 1.87 0 0 0 1.87-1.87v-9.793a1.87 1.87 0 1 0-3.74 0v7.924H4.613V4.613h7.923a1.87 1.87 0 1 0 0-3.739H2.744a1.87 1.87 0 0 0-1.87 1.87v25.694c0 .5.196.954.516 1.289z"/></svg>
