<svg xmlns="http://www.w3.org/2000/svg" height="25" width="25" viewBox="0 0 111 111"><circle fill="#fff" cx="55.497" cy="55.497" r="55.497"/><path fill="#4E5466" d="M65.713 85.979H46.438v-2.636c.616-.055 1.266-.11 1.921-.165.66-.055 1.222-.149 1.701-.314.76-.248 1.321-.66 1.679-1.266.369-.605.55-1.387.55-2.345V54.787c0-.853-.193-1.635-.578-2.35a5.076 5.076 0 0 0-1.607-1.783c-.506-.33-1.233-.605-2.196-.826a15.703 15.703 0 0 0-2.625-.424v-2.636h14.586v31.989c0 .936.176 1.717.534 2.334.369.616.93 1.073 1.701 1.371.589.237 1.167.429 1.728.578.567.154 1.183.248 1.882.303v2.636zm-5.025-55.811c0 1.541-.506 2.873-1.508 4.007-1.002 1.145-2.24 1.717-3.721 1.717-1.359 0-2.554-.545-3.556-1.629s-1.514-2.323-1.514-3.721c0-1.486.512-2.774 1.514-3.875 1.002-1.095 2.196-1.646 3.556-1.646 1.536 0 2.785.523 3.759 1.552.98 1.03 1.47 2.235 1.47 3.595z"/></svg>
