<svg xmlns="http://www.w3.org/2000/svg" id="logo__container" viewBox="0 0 2561 572"><path class="logo__text" d="M368.332 274.758h102.443c86.352 0 146.017-60.054 146.017-137.379C616.792 59.272 557.127 0 470.775 0H368.332v274.758zm1126.546 7.89l-.758-1.924-82.455-213.212h49.477l56.93 154.852 56.935-154.852h49.472l-82.455 213.212c-16.489 42.403-34.946 58.11-68.323 58.11-20.021 0-34.552-4.713-49.079-12.564l16.1-35.339c8.633 4.713 18.058 7.851 27.877 7.851 11.196 0 19.321-4.142 26.279-16.134zm457.056 242.212h-16.729v16.158h16.729V524.86zM951.23 278.684c43.176 0 76.932-21.586 76.932-65.155 0-38.075-34.149-51.814-64.373-61.234-1.176-.389-2.75-.782-3.926-1.176-22.766-7.458-42.783-13.739-42.783-27.867 0-12.952 10.596-21.59 29.043-21.59 17.271 0 38.468 7.458 58.485 19.628l18.841-33.756c-21.979-14.526-50.24-23.553-76.145-23.553-41.213 0-73.793 23.947-73.793 63.192 0 40.431 34.149 52.99 64.762 62.017l3.537 1.181c22.766 6.671 42.783 12.165 42.783 27.474 0 14.522-11.777 23.16-32.187 23.16-21.197 0-45.532-8.638-67.905-25.511l-21.192 32.182c25.905 20.412 58.48 31.008 87.921 31.008zm207.646.787c40.426 0 64.373-16.096 84.783-38.862l-28.655-28.261c-14.915 15.309-31.399 25.909-53.772 25.909-36.505 0-62.017-29.835-62.017-66.729s25.122-66.724 59.66-66.724c23.947 0 39.251 10.596 53.777 25.905l29.437-31.793c-19.234-21.197-43.57-35.723-82.82-35.723-62.017 0-107.549 49.458-107.549 108.336 0 59.66 45.532 107.942 107.156 107.942zm115.016-4.713h47.495v-74.969c0-54.953 29.043-82.033 70.65-82.033h2.75V67.511c-36.505-1.569-60.448 19.628-73.4 50.634V67.511h-47.495v207.247zm680.806 3.532c17.66 0 31.006-3.926 42.778-10.596v-38.862c-9.416 4.713-18.836 7.069-29.437 7.069-16.091 0-25.511-7.458-25.511-25.905v-101.66h55.735V67.511h-55.735V10.596h-47.495v56.915h-26.298v40.825h26.298v109.118c0 45.528 24.729 60.836 59.665 60.836zm309.393-3.532h47.495v-78.895c0-54.953 29.043-82.033 70.65-82.033h2.75V63.586c-36.506-1.569-60.448 19.628-73.4 50.634V67.511h-47.495v207.247zm219.815 3.926c43.176 0 76.932-21.586 76.932-65.155 0-38.075-34.149-51.814-64.368-61.234-1.181-.389-2.75-.782-3.926-1.176-22.766-7.458-42.787-13.739-42.787-27.867 0-12.952 10.601-21.59 29.048-21.59 17.271 0 38.468 7.458 58.485 19.628l18.841-33.756c-21.979-14.526-50.245-23.553-76.15-23.553-41.213 0-73.789 23.947-73.789 63.192 0 40.431 34.145 52.99 64.762 62.017l3.532 1.181c22.766 6.671 42.787 12.165 42.787 27.474 0 14.522-11.776 23.16-32.186 23.16-21.197 0-45.532-8.638-67.905-25.511l-21.197 32.182c25.904 20.412 58.484 31.008 87.921 31.008zM431.961 543.298c24.139 0 39.346-8.552 53.225-22.617l-9.886-10.457c-12.736 12.165-24.715 19.201-42.96 19.201-29.274 0-51.512-24.143-51.512-54.934 0-30.982 22.051-54.933 51.512-54.933 18.058 0 30.603 7.602 41.818 18.246l9.886-10.644c-13.307-12.544-27.373-21.48-51.512-21.48-39.159 0-67.291 31.174-67.291 68.812 0 38.582 28.324 68.806 66.72 68.806zm70.525-2.28h14.637v-39.155c0-29.657 17.487-45.052 38.967-45.052h1.137v-15.779c-18.63-.758-32.882 11.028-40.105 27.373v-25.66h-14.637v98.273zM588.219 572c14.824 0 24.331-7.414 32.69-27.752l41.252-101.502h-15.587l-31.558 81.927-35.733-81.927h-16.158l44.669 97.894c-5.893 13.874-11.402 18.438-20.146 18.438-6.272 0-10.644-1.142-15.4-3.614l-4.938 11.594c6.652 3.234 12.732 4.942 20.909 4.942zm90.672-.571h14.637v-49.227c7.602 11.023 19.388 20.909 37.638 20.909 23.76 0 46.948-19.009 46.948-51.133 0-32.695-23.38-51.325-46.948-51.325-18.058 0-29.653 10.073-37.638 21.859v-19.767h-14.637v128.684zm49.611-41.434c-18.246 0-35.546-15.208-35.546-38.017 0-22.809 17.3-38.209 35.546-38.209 18.63 0 34.596 14.829 34.596 38.017 0 24.138-15.587 38.209-34.596 38.209zm103.028 12.731c7.035 0 12.549-1.516 17.679-4.18v-12.544c-5.13 2.471-9.315 3.422-14.258 3.422-9.881 0-16.537-4.372-16.537-16.35v-57.405h31.174v-12.924h-31.174v-29.653h-14.637v29.653H790.09v12.924h13.687v59.31c.001 19.954 11.979 27.747 27.753 27.747zm79.461.572c29.653 0 51.512-23.568 51.512-51.32 0-28.131-21.672-51.325-51.133-51.325-29.653 0-51.32 23.572-51.32 51.325.001 28.131 21.476 51.32 50.941 51.32zm.379-13.116c-20.717 0-36.304-17.108-36.304-38.204 0-21.101 14.637-38.396 35.925-38.396 20.717 0 36.496 17.295 36.496 38.396 0 21.096-14.829 38.204-36.117 38.204zm130.589 10.836h46.195c41.818 0 70.708-29.082 70.708-66.528 0-37.825-28.89-66.532-70.708-66.532h-46.195v133.06zm15.021-13.874V421.836h31.174c33.641 0 55.121 23.188 55.121 52.654 0 29.84-21.48 52.654-55.121 52.654h-31.174zm133.439-29.273h77.935c.192-2.284.192-3.806.192-5.135 0-28.89-16.729-52.083-45.811-52.083-27.181 0-47.14 22.809-47.14 51.325 0 30.603 22.046 51.32 49.04 51.32 18.63 0 30.603-7.414 40.489-18.438l-9.128-8.173c-7.981 8.365-17.487 13.874-30.982 13.874-17.295 0-32.503-11.973-34.595-32.69zm0-11.786c2.092-19.009 15.021-33.074 31.937-33.074 19.388 0 29.653 15.208 31.361 33.074h-63.298zm129.831 56.833c19.58 0 34.975-10.836 34.975-29.461 0-18.058-16.345-23.951-31.553-28.515-13.115-3.993-25.281-7.602-25.281-16.916 0-8.552 7.414-14.637 19.009-14.637 9.507 0 19.959 3.614 29.082 9.502l6.656-11.023c-10.073-6.651-23.38-10.836-35.354-10.836-19.393 0-33.458 11.215-33.458 28.136 0 18.438 17.108 23.76 32.503 28.131 12.928 3.609 24.523 7.414 24.523 17.295 0 9.886-8.552 15.966-20.338 15.966-11.594 0-23.38-4.559-34.025-12.544l-7.414 10.457c11.022 8.931 26.609 14.445 40.675 14.445zm99.99.38c18.438 0 30.224-7.981 40.105-19.009l-9.694-8.931c-7.794 8.36-17.108 14.824-29.653 14.824-20.53 0-36.117-16.916-36.117-38.204 0-21.48 15.208-38.396 35.167-38.396 13.307 0 22.43 6.272 30.224 14.445l9.315-9.886c-9.123-9.694-20.722-17.487-39.346-17.487-28.703 0-50.375 23.572-50.375 51.325 0 27.938 21.672 51.319 50.374 51.319zm57.789-2.28h14.637v-39.155c0-29.657 17.487-45.052 38.967-45.052h1.142v-15.779c-18.629-.758-32.887 11.028-40.109 27.373v-25.66h-14.637v98.273zm70.904-119.753h16.729v-16.158h-16.729v16.158zm.951 119.753h14.637v-98.273h-14.637v98.273zm94.476 2.092c23.76 0 46.948-19.009 46.948-51.133 0-32.695-23.38-51.325-46.948-51.325-18.058 0-29.653 10.073-37.638 21.859v-60.255h-14.637v138.761h14.637V522.2c7.607 11.025 19.388 20.91 37.638 20.91zm-2.663-13.115c-18.246 0-35.546-15.208-35.546-38.017 0-22.809 17.3-38.209 35.546-38.209 18.629 0 34.595 14.829 34.595 38.017 0 24.138-15.586 38.209-34.595 38.209zm78.89-32.124h77.935c.187-2.284.187-3.806.187-5.135 0-28.89-16.724-52.083-45.806-52.083-27.186 0-47.14 22.809-47.14 51.325 0 30.603 22.046 51.32 49.04 51.32 18.625 0 30.603-7.414 40.489-18.438l-9.128-8.173c-7.981 8.365-17.487 13.874-30.982 13.874-17.295 0-32.503-11.973-34.595-32.69zm0-11.786c2.092-19.009 15.016-33.074 31.932-33.074 19.392 0 29.653 15.208 31.366 33.074h-63.298zm138.574 57.025c18.058 0 29.653-10.078 37.638-21.859v19.767h14.637V402.257h-14.637v59.305c-7.606-11.023-19.388-20.909-37.638-20.909-23.568 0-46.948 19.009-46.948 51.133 0 32.695 23.38 51.324 46.948 51.324zm2.663-13.115c-18.63 0-34.596-14.829-34.596-38.017 0-24.143 15.587-38.209 34.596-38.209 18.246 0 35.546 15.208 35.546 37.825 0 23.001-17.3 38.401-35.546 38.401zm-220.343-192.438h47.49v-94.985c14.522 19.234 36.112 36.506 70.261 36.506 49.453 0 96.555-38.862 96.555-107.549 0-69.474-47.49-108.336-96.555-108.336-33.362 0-54.953 17.271-70.261 38.862V67.511h-47.49v270.046zm106.762-99.693c-32.187 0-60.448-26.303-60.448-66.336 0-40.426 28.261-67.118 60.448-67.118s59.267 26.298 59.267 66.331c0 41.607-26.692 67.123-59.267 67.123zm377.206 41.607c63.975 0 111.081-49.064 111.081-107.943 0-60.054-46.713-108.336-110.299-108.336s-110.688 49.069-110.688 108.336c.001 59.661 46.709 107.943 109.906 107.943zm.782-41.213c-36.894 0-63.192-30.617-63.192-66.729 0-36.894 24.335-66.724 62.41-66.724 37.288 0 63.586 30.219 63.586 66.724s-24.335 66.729-62.804 66.729zm-1374.8 41.213c38.075 0 65.16-15.309 84.783-38.862l-27.867-24.724c-16.484 16.091-32.974 24.724-56.128 24.724-30.617 0-54.559-18.841-59.665-52.596h152.294c.393-2.356.787-10.203.787-13.341 0-59.665-33.362-111.479-99.305-111.479-59.272 0-101.267 48.676-101.267 107.943 0 64.765 46.314 108.335 106.368 108.335zm-59.267-122.858c4.314-32.186 24.724-54.559 53.772-54.559 31.399 0 49.453 23.942 52.596 54.559H692.164zM416.609 230.8V43.963h54.166c57.698 0 95.384 39.644 95.384 93.416 0 54.559-37.686 93.421-95.384 93.421h-54.166z"/><path class="logo__icon" d="M188.832 0H.162v49.333h188.67V0zM.162 225.43h188.67v49.328H.162V225.43zm0-75.142h244.242v49.328H.162v-49.328zm0-75.146h244.242v49.333H.162V75.142z"/></svg>
