<svg xmlns="http://www.w3.org/2000/svg" width="34.016px" height="34.016px" viewBox="0 0 34.016 34.016">
<g>
	<path fill-rule="evenodd" clip-rule="evenodd" fill="#FFFFFF" d="M17.008,33.821c9.261,0,16.814-7.553,16.814-16.813
		c0-9.261-7.553-16.814-16.814-16.814c-9.26,0-16.813,7.553-16.813,16.814C0.194,26.268,7.747,33.821,17.008,33.821z"/>
	<path fill-rule="evenodd" clip-rule="evenodd" fill="#4682B4" d="M17.008,23.734L17.008,23.734c0.769,0,1.397-0.628,1.397-1.397
		v-6.453c0-0.768-0.629-1.397-1.397-1.397h0c-0.768,0-1.397,0.628-1.397,1.397v6.453C15.611,23.106,16.239,23.734,17.008,23.734z"/>
	<path fill-rule="evenodd" clip-rule="evenodd" fill="#4682B4" d="M17.008,13.103L17.008,13.103c0.769,0,1.397-0.628,1.397-1.397
		v-0.027c0-0.768-0.629-1.397-1.397-1.397h0c-0.768,0-1.397,0.628-1.397,1.397v0.027C15.611,12.474,16.239,13.103,17.008,13.103z"/>
</g>
</svg>
