<svg xmlns="http://www.w3.org/2000/svg" width="34.016px" height="34.016px" viewBox="0 0 34.016 34.016">
<g>
	<circle fill-rule="evenodd" clip-rule="evenodd" fill="#FFFFFF" cx="17.008" cy="17.008" r="16.814"/>
	<path fill-rule="evenodd" clip-rule="evenodd" fill="#4682B4" d="M17.008,23.285c1.733,0,3.303-0.703,4.439-1.839
		c1.136-1.135,1.839-2.706,1.839-4.439c0-1.733-0.703-3.303-1.839-4.439c-1.135-1.135-2.705-1.838-4.439-1.838V23.285L17.008,23.285
		z M23.183,23.183c-1.58,1.58-3.764,2.558-6.175,2.558c-2.411,0-4.595-0.978-6.175-2.558c-1.58-1.58-2.558-3.764-2.558-6.175
		c0-2.411,0.977-4.595,2.558-6.175c1.58-1.58,3.764-2.558,6.175-2.558c2.411,0,4.595,0.978,6.175,2.558
		c1.581,1.58,2.558,3.764,2.558,6.175C25.741,19.419,24.764,21.603,23.183,23.183z"/>
</g>
</svg>
