<svg xmlns="http://www.w3.org/2000/svg" id="icon-right" width="28.346" height="28.346" viewBox="0 0 28.346 28.346"><path fill-rule="evenodd" clip-rule="evenodd" fill="#4682B4" d="M14.173 1.434a12.7 12.7 0 0 1 9.008 3.731c2.305 2.305 3.731 5.49 3.731 9.008s-1.426 6.703-3.731 9.008c-2.305 2.305-5.49 3.731-9.008 3.731s-6.703-1.426-9.008-3.731c-2.305-2.305-3.731-5.49-3.731-9.008S2.86 7.47 5.165 5.165a12.7 12.7 0 0 1 9.008-3.731zm-1.8 8.941l3.798 3.798-3.798 3.798a.708.708 0 1 0 1.002 1.002l4.299-4.299a.708.708 0 0 0 0-1.002l-4.299-4.299a.708.708 0 1 0-1.002 1.002zm9.806-4.208a11.29 11.29 0 0 0-8.006-3.316 11.287 11.287 0 0 0-8.006 3.316 11.287 11.287 0 0 0-3.316 8.006c0 3.126 1.267 5.957 3.316 8.006a11.286 11.286 0 0 0 8.006 3.316c3.126 0 5.957-1.267 8.006-3.316a11.286 11.286 0 0 0 3.316-8.006c0-3.126-1.267-5.957-3.316-8.006z"/></svg>
