<svg xmlns="http://www.w3.org/2000/svg" width="34.016" height="22.677" viewBox="0 0 34.016 22.677"><g fill-rule="evenodd" clip-rule="evenodd" fill="#F2F2F2"><path opacity=".18" d="M22.852.182c6.161 0 11.156 4.995 11.156 11.156s-4.995 11.156-11.156 11.156c-2.143 0-4.144-.604-5.844-1.652a11.098 11.098 0 0 1-5.844 1.652C5.003 22.494.008 17.499.008 11.338S5.003.182 11.164.182c2.143 0 4.144.604 5.844 1.652A11.107 11.107 0 0 1 22.852.182z"/><path d="M22.321 11.339a11.15 11.15 0 0 0-5.312-9.505c-3.188 1.964-5.313 5.486-5.313 9.505s2.125 7.541 5.313 9.505a11.151 11.151 0 0 0 5.312-9.505z"/></g></svg>
